<svg width="161" height="38" viewBox="0 0 161 38" fill="none" xmlns="http://www.w3.org/2000/svg">
<g clip-path="url(#clip0_1_481)">
<path d="M2.59076 20.8362H8.82756C8.80205 20.02 8.54697 19.378 8.06231 18.9103C7.58615 18.4342 6.94419 18.1961 6.13643 18.1961C5.21812 18.1961 4.44012 18.4342 3.80241 18.9103C3.1647 19.3865 2.76082 20.0285 2.59076 20.8362ZM8.67451 24.6242L10.6514 26.1675C9.94568 27.0943 9.18043 27.7703 8.35565 28.1954C7.53088 28.6205 6.58282 28.8331 5.51147 28.8331C3.71738 28.8331 2.26765 28.2932 1.16229 27.2133C0.0569268 26.125 -0.495755 24.6965 -0.495755 22.9279C-0.495755 20.8532 0.137703 19.1527 1.40462 17.8262C2.68004 16.4913 4.29982 15.8238 6.26397 15.8238C7.90501 15.8238 9.21019 16.334 10.1795 17.3543C11.1573 18.3662 11.6462 19.7266 11.6462 21.4357C11.6462 21.5802 11.6377 21.7673 11.6207 21.9969C11.6122 22.2179 11.5952 22.4858 11.5697 22.8004H2.34843C2.34843 23.8972 2.62477 24.773 3.17745 25.4277C3.73013 26.0739 4.46563 26.3971 5.38393 26.3971C6.02164 26.3971 6.62534 26.244 7.19502 25.9379C7.77321 25.6233 8.26638 25.1854 8.67451 24.6242ZM12.8069 25.1216L14.8603 23.4253C15.3705 24.4457 15.9189 25.1854 16.5056 25.6446C17.0923 26.0952 17.781 26.3205 18.5718 26.3205C19.5581 26.3205 20.3574 26.0314 20.9696 25.4532C21.5818 24.8751 21.8879 24.1226 21.8879 23.1958C21.8879 22.541 21.7263 21.9884 21.4032 21.5377C21.0801 21.0786 20.5104 20.6109 19.6941 20.1347C19.5241 20.0327 19.2732 19.8882 18.9416 19.7011C17.5472 18.9274 16.6076 18.2726 16.123 17.737C15.7743 17.3543 15.5108 16.9122 15.3322 16.4105C15.1621 15.9089 15.0771 15.3647 15.0771 14.778C15.0771 13.1369 15.6043 11.802 16.6586 10.7732C17.713 9.73583 19.0904 9.21716 20.791 9.21716C21.9389 9.21716 22.9422 9.45099 23.801 9.91864C24.6683 10.3863 25.3825 11.0835 25.9437 12.0103L24.1581 13.6556C23.7415 12.9754 23.2781 12.4695 22.7679 12.1379C22.2577 11.8063 21.688 11.6405 21.0588 11.6405C20.1405 11.6405 19.3965 11.9083 18.8268 12.444C18.2572 12.9796 17.9723 13.6726 17.9723 14.5229C17.9723 15.5432 18.7928 16.4956 20.4339 17.3798C20.842 17.5924 21.1524 17.7625 21.3649 17.89C22.6233 18.6213 23.5119 19.3823 24.0306 20.173C24.5577 20.9553 24.8213 21.9161 24.8213 23.0555C24.8213 24.824 24.2516 26.2313 23.1123 27.2771C21.9729 28.3144 20.4254 28.8331 18.4697 28.8331C17.1433 28.8331 16.0082 28.527 15.0644 27.9148C14.1291 27.3026 13.3766 26.3715 12.8069 25.1216ZM36.0067 28.3357L36.925 21.3592C36.9421 21.2316 36.9548 21.0998 36.9633 20.9638C36.9718 20.8192 36.9761 20.6109 36.9761 20.3388C36.9761 19.5481 36.7847 18.9486 36.4021 18.5405C36.0195 18.1238 35.4626 17.9155 34.7313 17.9155C33.5919 17.9155 32.6992 18.2811 32.0529 19.0124C31.4067 19.7436 30.9858 20.866 30.7903 22.3795L30.025 28.3357H27.2829L29.8975 8.56669H32.6396L31.4407 17.6222C32.1295 17.01 32.8352 16.5593 33.5579 16.2702C34.2807 15.9726 35.0459 15.8238 35.8537 15.8238C37.0951 15.8238 38.0602 16.1512 38.7489 16.8059C39.4461 17.4606 39.7947 18.3704 39.7947 19.5353C39.7947 19.9604 39.7352 20.6789 39.6162 21.6908C39.6077 21.7928 39.5992 21.8736 39.5907 21.9331L38.7489 28.3357H36.0067ZM45.2918 20.8362H51.5286C51.5031 20.02 51.248 19.378 50.7633 18.9103C50.2872 18.4342 49.6452 18.1961 48.8375 18.1961C47.9192 18.1961 47.1412 18.4342 46.5034 18.9103C45.8657 19.3865 45.4619 20.0285 45.2918 20.8362ZM51.3755 24.6242L53.3524 26.1675C52.6467 27.0943 51.8815 27.7703 51.0567 28.1954C50.2319 28.6205 49.2839 28.8331 48.2125 28.8331C46.4184 28.8331 44.9687 28.2932 43.8633 27.2133C42.758 26.125 42.2053 24.6965 42.2053 22.9279C42.2053 20.8532 42.8387 19.1527 44.1057 17.8262C45.3811 16.4913 47.0009 15.8238 48.965 15.8238C50.606 15.8238 51.9112 16.334 52.8805 17.3543C53.8584 18.3662 54.3473 19.7266 54.3473 21.4357C54.3473 21.5802 54.3388 21.7673 54.3218 21.9969C54.3133 22.2179 54.2963 22.4858 54.2707 22.8004H45.0495C45.0495 23.8972 45.3258 24.773 45.8785 25.4277C46.4312 26.0739 47.1667 26.3971 48.085 26.3971C48.7227 26.3971 49.3264 26.244 49.8961 25.9379C50.4742 25.6233 50.9674 25.1854 51.3755 24.6242ZM59.2576 28.3357H56.5155L59.1046 8.56669H61.8467L59.2576 28.3357ZM63.6451 28.3357L64.9333 18.5915H62.7395L63.0456 16.2447H65.2138L65.6347 13.2347C65.8728 11.3896 66.2894 10.11 66.8846 9.39572C67.4883 8.68148 68.4194 8.32437 69.6778 8.32437C70.0774 8.32437 70.4558 8.36263 70.8129 8.43915C71.1701 8.50718 71.5229 8.61771 71.8715 8.77076L71.5654 11.143C71.2423 11.007 70.966 10.9092 70.7364 10.8497C70.5068 10.7902 70.2943 10.7604 70.0987 10.7604C69.58 10.7604 69.1932 10.9517 68.9381 11.3344C68.683 11.7085 68.4789 12.4822 68.3259 13.6556L67.9815 16.2447H70.4431L70.1242 18.5915H67.6754L66.3872 28.3357H63.6451Z" fill="black"/>
<path d="M71.1308 28.3357L81.9464 8.92381L88.7698 28.3357H85.7343L84.2166 23.9227H76.7809L74.3193 28.3357H71.1308ZM77.9543 21.4357H83.4131L81.9719 16.8187C81.9038 16.5976 81.8316 16.3042 81.755 15.9386C81.6785 15.573 81.585 15.0926 81.4744 14.4974C81.2874 14.9395 81.1003 15.3604 80.9133 15.7601C80.7347 16.1512 80.5561 16.5211 80.3776 16.8697L77.9543 21.4357ZM90.5299 28.3357L91.8181 18.5915H89.6244L89.9305 16.2447H92.0987L92.5196 13.2347C92.7577 11.3896 93.1743 10.11 93.7695 9.39572C94.3732 8.68148 95.3042 8.32437 96.5627 8.32437C96.9623 8.32437 97.3407 8.36263 97.6978 8.43915C98.0549 8.50718 98.4078 8.61771 98.7564 8.77076L98.4503 11.143C98.1272 11.007 97.8508 10.9092 97.6213 10.8497C97.3917 10.7902 97.1791 10.7604 96.9835 10.7604C96.4649 10.7604 96.078 10.9517 95.8229 11.3344C95.5678 11.7085 95.3638 12.4822 95.2107 13.6556L94.8663 16.2447H97.3279L97.0091 18.5915H94.5602L93.2721 28.3357H90.5299ZM106.473 18.668C106.286 18.532 106.082 18.4299 105.86 18.3619C105.648 18.2854 105.418 18.2471 105.172 18.2471C104.194 18.2471 103.424 18.6085 102.863 19.3312C102.302 20.054 101.924 21.1678 101.728 22.6728L100.963 28.3357H98.2207L99.815 16.2447H102.455L102.251 17.8135C102.727 17.1418 103.246 16.6444 103.807 16.3212C104.377 15.9896 104.989 15.8238 105.644 15.8238C105.941 15.8238 106.235 15.8621 106.524 15.9386C106.813 16.0151 107.093 16.1342 107.365 16.2957L106.473 18.668ZM109.546 12.0103C109.546 11.5597 109.704 11.1771 110.018 10.8624C110.341 10.5478 110.733 10.3905 111.192 10.3905C111.651 10.3905 112.033 10.5478 112.34 10.8624C112.654 11.1686 112.811 11.5512 112.811 12.0103C112.811 12.478 112.654 12.8691 112.34 13.1837C112.033 13.4983 111.651 13.6556 111.192 13.6556C110.716 13.6556 110.32 13.4983 110.006 13.1837C109.699 12.8691 109.546 12.478 109.546 12.0103ZM107.735 28.3357L109.33 16.2447H112.072L110.477 28.3357H107.735ZM124.762 19.6884C124.218 19.2122 123.644 18.8508 123.04 18.6042C122.445 18.3492 121.837 18.2216 121.217 18.2216C119.984 18.2216 118.976 18.6553 118.194 19.5225C117.42 20.3898 117.033 21.5165 117.033 22.9024C117.033 23.9908 117.322 24.8453 117.9 25.466C118.479 26.0867 119.269 26.3971 120.273 26.3971C120.885 26.3971 121.514 26.2908 122.16 26.0782C122.807 25.8656 123.457 25.5468 124.112 25.1216L123.538 28.0423C123.036 28.3059 122.509 28.5015 121.956 28.629C121.404 28.7651 120.817 28.8331 120.196 28.8331C118.377 28.8331 116.918 28.2974 115.821 27.2261C114.733 26.1462 114.189 24.7135 114.189 22.9279C114.189 20.8362 114.844 19.1314 116.153 17.8135C117.471 16.487 119.167 15.8238 121.242 15.8238C122.016 15.8238 122.734 15.9259 123.397 16.1299C124.069 16.334 124.715 16.6486 125.336 17.0737L124.762 19.6884ZM129.405 22.6728C129.405 23.8292 129.673 24.7305 130.208 25.3767C130.744 26.0229 131.488 26.346 132.44 26.346C133.537 26.346 134.404 25.9081 135.042 25.0324C135.68 24.1566 135.999 22.9492 135.999 21.4102C135.999 20.3643 135.714 19.5353 135.144 18.9231C134.574 18.3024 133.805 17.992 132.836 17.992C131.79 17.992 130.956 18.4129 130.336 19.2547C129.715 20.0965 129.405 21.2359 129.405 22.6728ZM137.848 28.3357H135.106L135.31 27.0093C134.834 27.613 134.285 28.0636 133.665 28.3612C133.044 28.6588 132.33 28.8076 131.522 28.8076C129.94 28.8076 128.716 28.3102 127.849 27.3154C126.99 26.312 126.561 24.8921 126.561 23.0555C126.561 20.8872 127.088 19.1399 128.142 17.8135C129.196 16.487 130.578 15.8238 132.287 15.8238C133.095 15.8238 133.843 15.9939 134.532 16.334C135.229 16.6656 135.871 17.1758 136.458 17.8645L136.7 16.2447H139.442L137.848 28.3357Z" fill="#FF6600"/>
<mask id="mask0_1_481" style="mask-type:luminance" maskUnits="userSpaceOnUse" x="126" y="0" width="35" height="38">
<path d="M134.011 1.03148L133.466 1.59089L132.783 2.10138L131.546 3.16013L130.481 4.40435L129.7 4.72904L129.16 5.38398L128.07 6.59045L127.038 9.81593L126.241 11.4242L126.343 12.788L127.429 13.9166L128.087 15.5581L130.084 16.973L130.901 17.0975L132.904 16.8801L133.756 17.0968L137.292 16.6638L137.76 17.4011L139.391 17.3072L139.596 19.0295L140.326 21.5576L141.604 24.0215L141.723 24.9318L141.792 26.0227L141.26 26.6833L141.01 27.7085L141.499 29.6717L142.67 33.4428L143.794 35.3866L144.019 35.7625L144.052 36.6578L145.638 37.1203L149.342 36.0442L152.513 30.1724L154.911 28.5775L155.026 23.1846L160.542 16.9054L160.986 13.8437L157.112 14.846L153.201 8.28674L152.847 7.24769L152.292 6.35507L151.428 4.64532L152.452 5.66434L152.333 3.95427L150.106 4.08821L149.193 4.05768L148.536 3.79767L147.901 3.7481L147.637 3.59577L146.894 3.14273L145.554 3.45822L145.467 3.88204L145.347 4.27402L144.302 4.02944L143.3 3.49597L141.993 3.01568L141.157 2.65554L141.491 1.98714L141.246 1.36831L141.285 1.31709L141.322 1.26457L141.428 0.87915L140.453 0.987159L139.486 0.964835L137.432 0.955971L136.61 1.23666L134.01 1.03082L134.011 1.03148Z" fill="white"/>
</mask>
<g mask="url(#mask0_1_481)">
<path fill-rule="evenodd" clip-rule="evenodd" d="M142.666 23.4109H169.88L169.873 35.216H149.06L142.666 23.4109Z" fill="#FF6600"/>
<path fill-rule="evenodd" clip-rule="evenodd" d="M142.992 16.2708L169.837 16.2249L169.873 28.0243H149.06L142.992 16.2708Z" fill="#333333"/>
<path fill-rule="evenodd" clip-rule="evenodd" d="M143.067 7.11499H169.795L169.873 18.9197H149.06L143.067 7.11499Z" fill="#009933"/>
</g>
</g>
<defs>
<clipPath id="clip0_1_481">
<rect width="160.987" height="36.2412" fill="white" transform="translate(0 0.879395)"/>
</clipPath>
</defs>
</svg>
