<svg width="370" height="628" viewBox="0 0 370 628" fill="none" xmlns="http://www.w3.org/2000/svg">
<g filter="url(#filter0_d_1_258)">
<path d="M115.382 572.262C115.382 580.42 111.769 587.044 107.319 587.044H32.063C27.613 587.044 24 580.412 24 572.262V22.7751C24 14.6095 27.613 8 32.063 8H107.319C111.769 8 115.382 14.6169 115.382 22.7751V572.262Z" fill="#61313E"/>
<path d="M115.382 572.262C115.382 580.42 111.769 587.044 107.319 587.044H32.063C27.613 587.044 24 580.412 24 572.262V22.7751C24 14.6095 27.613 8 32.063 8H107.319C111.769 8 115.382 14.6169 115.382 22.7751V572.262Z" fill="#63A343"/>
<path d="M184.937 573.388C184.937 580.931 182.198 587.044 178.801 587.044H121.523C118.133 587.044 115.382 580.931 115.382 573.388V65.9886C115.382 58.4529 118.133 52.3398 121.523 52.3398H178.801C182.198 52.3398 184.937 58.4529 184.937 65.9886V573.388Z" fill="#22B1B6"/>
<path d="M254.492 575.062C254.492 581.679 251.753 587.044 248.364 587.044H191.077C187.692 587.044 184.941 581.672 184.941 575.062V129.646C184.941 123.022 187.692 117.665 191.077 117.665H248.364C251.753 117.665 254.492 123.029 254.492 129.646V575.062Z" fill="#EA5645"/>
<path d="M345.874 572.262C345.874 580.42 342.265 587.044 337.811 587.044H262.551C258.101 587.044 254.488 580.412 254.488 572.262V22.7751C254.488 14.6095 258.101 8 262.551 8H337.811C342.265 8 345.874 14.6169 345.874 22.7751V572.262Z" fill="#FFC23A"/>
<path d="M262.551 8.95581C258.101 8.95581 254.488 15.5727 254.488 23.7383V573.217C254.488 581.383 258.101 588 262.551 588H279.062V8.95581H262.551Z" fill="#F9A431"/>
<path d="M345.874 513.865H254.492V534.123H345.874V513.865Z" fill="#4F823C"/>
<path d="M345.874 479.98H254.492V500.246H345.874V479.98Z" fill="#4F823C"/>
<path d="M345.874 446.096H254.492V466.361H345.874V446.096Z" fill="#4F823C"/>
<path d="M320.549 103.542C320.549 123.652 311.43 139.961 300.181 139.961C288.931 139.961 279.812 123.652 279.812 103.542C279.812 83.4241 288.931 67.1077 300.181 67.1077C311.434 67.1077 320.549 83.4241 320.549 103.542Z" fill="#22B1B6"/>
<path d="M189.151 117.657C186.826 117.657 184.937 123.029 184.937 129.639V575.055C184.937 581.672 186.831 587.037 189.151 587.037H197.794V117.657H189.151Z" fill="#D13431"/>
<path d="M254.492 153.995H184.937V382.712H254.492V153.995Z" fill="#63A343"/>
<path d="M197.794 153.995H184.937V381.927H197.794V153.995Z" fill="#4F823C"/>
<path d="M122.521 51.51C118.581 51.51 115.382 57.6305 115.382 65.1811V573.373C115.382 580.924 118.577 587.051 122.521 587.051H137.143V51.51H122.521Z" fill="#179998"/>
<path d="M184.937 171.986H115.382V285.288H184.937V171.986Z" fill="#FFC23A"/>
<path d="M184.937 408.128H115.382V424.014H184.937V408.128Z" fill="#FFC23A"/>
<path d="M137.143 171.986H115.382V285.288H137.143V171.986Z" fill="#F9A431"/>
<path d="M137.143 408.128H115.382V424.014H137.143V408.128Z" fill="#F9A431"/>
<path d="M32.0588 8.95581C27.6088 8.95581 24 15.5579 24 23.7161V572.284C24 580.435 27.6088 587.044 32.0588 587.044H48.5743V8.95581H32.0588Z" fill="#4F823C"/>
<path d="M115.382 52.3398H24V210.916H115.382V52.3398Z" fill="#EA5645"/>
<path d="M115.382 469.192H24V490.776H115.382V469.192Z" fill="#EA5645"/>
<path d="M115.382 503.069H24V524.654H115.382V503.069Z" fill="#EA5645"/>
<path d="M48.5743 52.3398H24V210.916H48.5743V52.3398Z" fill="#D13431"/>
<path d="M48.5743 469.192H24V490.11H48.5743V469.192Z" fill="#D13431"/>
<path d="M48.5743 503.069H24V524.654H48.5743V503.069Z" fill="#D13431"/>
<path d="M115.382 101.726H24V171.986H115.382V101.726Z" fill="#FFC23A"/>
<path d="M48.5743 101.726H24V172.237H48.5743V101.726Z" fill="#F9A431"/>
</g>
<defs>
<filter id="filter0_d_1_258" x="0" y="0" width="369.874" height="628" filterUnits="userSpaceOnUse" color-interpolation-filters="sRGB">
<feFlood flood-opacity="0" result="BackgroundImageFix"/>
<feColorMatrix in="SourceAlpha" type="matrix" values="0 0 0 0 0 0 0 0 0 0 0 0 0 0 0 0 0 0 127 0" result="hardAlpha"/>
<feMorphology radius="8" operator="erode" in="SourceAlpha" result="effect1_dropShadow_1_258"/>
<feOffset dy="16"/>
<feGaussianBlur stdDeviation="16"/>
<feComposite in2="hardAlpha" operator="out"/>
<feColorMatrix type="matrix" values="0 0 0 0 0.0470588 0 0 0 0 0.0470588 0 0 0 0 0.0509804 0 0 0 0.4 0"/>
<feBlend mode="normal" in2="BackgroundImageFix" result="effect1_dropShadow_1_258"/>
<feBlend mode="normal" in="SourceGraphic" in2="effect1_dropShadow_1_258" result="shape"/>
</filter>
</defs>
</svg>
