<svg width="40" height="44" viewBox="0 0 40 44" fill="none" xmlns="http://www.w3.org/2000/svg">
<path d="M12 10C12.3956 10 12.7822 9.8827 13.1111 9.66294C13.44 9.44318 13.6964 9.13082 13.8478 8.76537C13.9991 8.39991 14.0387 7.99778 13.9616 7.60982C13.8844 7.22186 13.6939 6.86549 13.4142 6.58579C13.1345 6.30608 12.7781 6.1156 12.3902 6.03843C12.0022 5.96126 11.6001 6.00087 11.2346 6.15224C10.8692 6.30362 10.5568 6.55996 10.3371 6.88886C10.1173 7.21776 10 7.60444 10 8C10 8.53043 10.2107 9.03914 10.5858 9.41421C10.9609 9.78929 11.4696 10 12 10ZM38 36H25.64C25.3414 35.1612 24.8598 34.3994 24.2302 33.7698C23.6006 33.1402 22.8388 32.6586 22 32.36V28H30C31.5913 28 33.1174 27.3679 34.2426 26.2426C35.3679 25.1174 36 23.5913 36 22V18C35.9912 16.5199 35.4356 15.0953 34.44 14C35.4356 12.9047 35.9912 11.4801 36 10V6C36 4.4087 35.3679 2.88258 34.2426 1.75736C33.1174 0.632141 31.5913 0 30 0H10C8.4087 0 6.88258 0.632141 5.75736 1.75736C4.63214 2.88258 4 4.4087 4 6V10C4.00882 11.4801 4.56442 12.9047 5.56 14C4.56442 15.0953 4.00882 16.5199 4 18V22C4 23.5913 4.63214 25.1174 5.75736 26.2426C6.88258 27.3679 8.4087 28 10 28H18V32.36C17.1612 32.6586 16.3994 33.1402 15.7698 33.7698C15.1402 34.3994 14.6586 35.1612 14.36 36H2C1.46957 36 0.960859 36.2107 0.585786 36.5858C0.210714 36.9609 0 37.4696 0 38C0 38.5304 0.210714 39.0391 0.585786 39.4142C0.960859 39.7893 1.46957 40 2 40H14.36C14.7804 41.1583 15.5473 42.1591 16.5563 42.8663C17.5654 43.5736 18.7678 43.953 20 43.953C21.2322 43.953 22.4346 43.5736 23.4437 42.8663C24.4527 42.1591 25.2196 41.1583 25.64 40H38C38.5304 40 39.0391 39.7893 39.4142 39.4142C39.7893 39.0391 40 38.5304 40 38C40 37.4696 39.7893 36.9609 39.4142 36.5858C39.0391 36.2107 38.5304 36 38 36ZM8 6C8 5.46957 8.21071 4.96086 8.58579 4.58579C8.96086 4.21071 9.46957 4 10 4H30C30.5304 4 31.0391 4.21071 31.4142 4.58579C31.7893 4.96086 32 5.46957 32 6V10C32 10.5304 31.7893 11.0391 31.4142 11.4142C31.0391 11.7893 30.5304 12 30 12H10C9.46957 12 8.96086 11.7893 8.58579 11.4142C8.21071 11.0391 8 10.5304 8 10V6ZM10 24C9.46957 24 8.96086 23.7893 8.58579 23.4142C8.21071 23.0391 8 22.5304 8 22V18C8 17.4696 8.21071 16.9609 8.58579 16.5858C8.96086 16.2107 9.46957 16 10 16H30C30.5304 16 31.0391 16.2107 31.4142 16.5858C31.7893 16.9609 32 17.4696 32 18V22C32 22.5304 31.7893 23.0391 31.4142 23.4142C31.0391 23.7893 30.5304 24 30 24H10ZM20 40C19.6044 40 19.2178 39.8827 18.8889 39.6629C18.56 39.4432 18.3036 39.1308 18.1522 38.7654C18.0009 38.3999 17.9613 37.9978 18.0384 37.6098C18.1156 37.2219 18.3061 36.8655 18.5858 36.5858C18.8655 36.3061 19.2219 36.1156 19.6098 36.0384C19.9978 35.9613 20.3999 36.0009 20.7654 36.1522C21.1308 36.3036 21.4432 36.56 21.6629 36.8889C21.8827 37.2178 22 37.6044 22 38C22 38.5304 21.7893 39.0391 21.4142 39.4142C21.0391 39.7893 20.5304 40 20 40ZM12 18C11.6044 18 11.2178 18.1173 10.8889 18.3371C10.56 18.5568 10.3036 18.8692 10.1522 19.2346C10.0009 19.6001 9.96126 20.0022 10.0384 20.3902C10.1156 20.7781 10.3061 21.1345 10.5858 21.4142C10.8655 21.6939 11.2219 21.8844 11.6098 21.9616C11.9978 22.0387 12.3999 21.9991 12.7654 21.8478C13.1308 21.6964 13.4432 21.44 13.6629 21.1111C13.8827 20.7822 14 20.3956 14 20C14 19.4696 13.7893 18.9609 13.4142 18.5858C13.0391 18.2107 12.5304 18 12 18Z" fill="#FFC23A"/>
</svg>
