<svg width="154" height="27" viewBox="0 0 154 27" fill="none" xmlns="http://www.w3.org/2000/svg">
<path d="M13.1111 0.142731L16.0547 9.20229H25.5805L17.874 14.8014L20.8176 23.861L13.1111 18.2618L5.40459 23.861L8.34822 14.8014L0.641704 9.20229H10.1675L13.1111 0.142731Z" fill="#F1CD3B"/>
<path d="M45.0338 0.142731L47.9775 9.20229H57.5032L49.7967 14.8014L52.7404 23.861L45.0338 18.2618L37.3273 23.861L40.271 14.8014L32.5644 9.20229H42.0902L45.0338 0.142731Z" fill="#F1CD3B"/>
<path d="M76.9565 0.142731L79.9001 9.20229H89.4259L81.7194 14.8014L84.663 23.861L76.9565 18.2618L69.25 23.861L72.1936 14.8014L64.4871 9.20229H74.0129L76.9565 0.142731Z" fill="#F1CD3B"/>
<path d="M108.879 0.142731L111.823 9.20229H121.349L113.642 14.8014L116.586 23.861L108.879 18.2618L101.173 23.861L104.116 14.8014L96.4098 9.20229H105.936L108.879 0.142731Z" fill="#F1CD3B"/>
<path d="M140.802 0.142731L143.746 9.20229H153.271L145.565 14.8014L148.508 23.861L140.802 18.2618L133.095 23.861L136.039 14.8014L128.333 9.20229H137.858L140.802 0.142731Z" fill="#C9C9C9"/>
</svg>
